<svg xmlns="http://www.w3.org/2000/svg" xmlns:xlink="http://www.w3.org/1999/xlink" width="1587" zoomAndPan="magnify" viewBox="0 0 1190.25 1683.749949" height="2245" preserveAspectRatio="xMidYMid meet" version="1.0"><defs><clipPath id="id1"><path d="M 181.871094 0.40625 L 1008.648438 0.40625 L 1008.648438 1683.09375 L 181.871094 1683.09375 Z M 181.871094 0.40625 " clip-rule="nonzero"/></clipPath></defs><g clip-path="url(#id1)"><path fill="#ff3d00" d="M 955.441406 1487.25 L 231.640625 1487.25 L 231.640625 206.261719 L 955.441406 206.261719 Z M 597.800781 1638.277344 C 563.425781 1638.277344 535.480469 1610.492188 535.480469 1575.984375 C 535.480469 1541.625 563.425781 1513.839844 597.800781 1513.839844 C 632.175781 1513.839844 659.972656 1541.625 659.972656 1575.984375 C 659.972656 1610.492188 632.175781 1638.277344 597.800781 1638.277344 Z M 464.039062 91.679688 C 473.304688 91.679688 480.777344 99.148438 480.777344 108.261719 C 480.777344 117.375 473.304688 124.84375 464.039062 124.84375 C 454.921875 124.84375 447.449219 117.375 447.449219 108.261719 C 447.449219 99.148438 454.921875 91.679688 464.039062 91.679688 Z M 530.546875 102.4375 L 659.972656 102.4375 C 663.261719 102.4375 665.953125 104.976562 665.953125 108.261719 C 665.953125 111.550781 663.261719 114.089844 659.972656 114.089844 L 530.546875 114.089844 C 527.257812 114.089844 524.570312 111.550781 524.570312 108.261719 C 524.570312 104.976562 527.257812 102.4375 530.546875 102.4375 Z M 1001.921875 312.324219 L 1001.921875 110.503906 C 1001.921875 49.703125 952.75 0.40625 891.925781 0.40625 L 298.597656 0.40625 C 237.769531 0.40625 188.449219 49.703125 188.449219 110.503906 L 188.449219 192.964844 L 181.871094 192.964844 L 181.871094 249.285156 L 188.449219 249.285156 L 188.449219 315.761719 L 181.871094 315.761719 L 181.871094 431.832031 L 188.449219 431.832031 L 188.449219 448.414062 L 181.871094 448.414062 L 181.871094 564.636719 L 188.449219 564.636719 L 188.449219 1572.996094 C 188.449219 1633.796875 237.769531 1683.09375 298.597656 1683.09375 L 891.925781 1683.09375 C 952.75 1683.09375 1001.921875 1633.796875 1001.921875 1572.996094 L 1001.921875 428.546875 L 1008.648438 428.546875 L 1008.648438 312.324219 L 1001.921875 312.324219 " fill-opacity="1" fill-rule="nonzero"/></g></svg>