<svg xmlns="http://www.w3.org/2000/svg" xmlns:xlink="http://www.w3.org/1999/xlink" width="1587" zoomAndPan="magnify" viewBox="0 0 1190.25 1683.749949" height="2245" preserveAspectRatio="xMidYMid meet" version="1.0"><defs><clipPath id="id1"><path d="M 181 0.40625 L 1008 0.40625 L 1008 1683.09375 L 181 1683.09375 Z M 181 0.40625 " clip-rule="nonzero"/></clipPath></defs><g clip-path="url(#id1)"><path fill="#1ccdf4" d="M 956.1875 1555.21875 C 956.1875 1597.644531 921.964844 1632.003906 879.519531 1632.003906 L 309.503906 1632.003906 C 267.0625 1632.003906 232.6875 1597.644531 232.6875 1555.21875 L 232.6875 128.429688 C 232.6875 86.304688 266.910156 52.09375 309.058594 52.09375 L 381.09375 52.09375 C 386.324219 52.09375 390.660156 55.976562 391.105469 61.207031 L 392.304688 73.007812 C 394.097656 93.175781 410.984375 108.5625 431.308594 108.5625 L 757.714844 108.5625 C 777.890625 108.5625 794.78125 93.175781 796.722656 73.007812 L 797.917969 61.207031 C 798.367188 55.976562 802.699219 52.09375 807.78125 52.09375 L 879.96875 52.09375 C 922.113281 52.09375 956.1875 86.304688 956.1875 128.429688 Z M 490.34375 55.527344 L 596.15625 55.527344 C 602.582031 55.527344 607.8125 60.757812 607.8125 67.03125 C 607.8125 73.457031 602.582031 78.535156 596.15625 78.535156 L 490.34375 78.535156 C 484.066406 78.535156 478.835938 73.457031 478.835938 67.03125 C 478.835938 60.757812 484.066406 55.527344 490.34375 55.527344 Z M 681.644531 55.527344 C 688.070312 55.527344 693.300781 60.757812 693.300781 67.03125 C 693.300781 73.457031 688.070312 78.535156 681.644531 78.535156 C 675.367188 78.535156 670.136719 73.457031 670.136719 67.03125 C 670.136719 60.757812 675.367188 55.527344 681.644531 55.527344 Z M 882.210938 0.40625 L 306.667969 0.40625 C 237.769531 0.40625 181.871094 56.277344 181.871094 125.144531 L 181.871094 1553.277344 C 181.871094 1624.984375 240.011719 1683.09375 311.746094 1683.09375 L 877.277344 1683.09375 C 949.015625 1683.09375 1007.152344 1624.984375 1007.152344 1553.277344 L 1007.152344 125.144531 C 1007.152344 56.277344 951.257812 0.40625 882.210938 0.40625 " fill-opacity="1" fill-rule="nonzero"/></g></svg>