<svg xmlns="http://www.w3.org/2000/svg" xmlns:xlink="http://www.w3.org/1999/xlink" width="500" zoomAndPan="magnify" viewBox="0 0 375 374.999991" height="500" preserveAspectRatio="xMidYMid meet" version="1.0"><defs><g/><clipPath id="id1"><path d="M 132 204 L 155 204 L 155 225.679688 L 132 225.679688 Z M 132 204 " clip-rule="nonzero"/></clipPath><clipPath id="id2"><path d="M 96.078125 19.429688 L 279.078125 19.429688 L 279.078125 130 L 96.078125 130 Z M 96.078125 19.429688 " clip-rule="nonzero"/></clipPath></defs><path fill="#3b99a3" d="M 187.5 0 C 83.945312 0 0 83.945312 0 187.5 C 0 291.054688 83.945312 375 187.5 375 C 291.054688 375 375 291.054688 375 187.5 C 375 83.945312 291.054688 0 187.5 0 " fill-opacity="1" fill-rule="nonzero"/><path fill="#040505" d="M 171.828125 121.792969 L 171.828125 169.082031 L 143.703125 169.082031 C 143.199219 169.082031 142.691406 169.292969 142.335938 169.652344 C 141.96875 170.015625 141.765625 170.515625 141.765625 171.027344 L 141.765625 216.375 C 141.765625 217.445312 142.636719 218.316406 143.703125 218.316406 C 144.785156 218.316406 145.648438 217.445312 145.648438 216.375 L 145.648438 172.972656 L 173.773438 172.972656 C 174.285156 172.972656 174.785156 172.761719 175.148438 172.402344 C 175.507812 172.039062 175.714844 171.539062 175.714844 171.027344 L 175.714844 121.792969 C 175.714844 120.722656 174.847656 119.851562 173.773438 119.851562 C 172.699219 119.851562 171.828125 120.722656 171.828125 121.792969 " fill-opacity="1" fill-rule="nonzero"/><path fill="#040505" d="M 186.863281 121.792969 L 186.863281 187.320312 L 173.773438 187.320312 C 173.261719 187.320312 172.761719 187.53125 172.398438 187.890625 C 172.039062 188.253906 171.828125 188.753906 171.828125 189.265625 L 171.828125 206.027344 C 171.828125 207.097656 172.699219 207.96875 173.773438 207.96875 C 174.847656 207.96875 175.714844 207.097656 175.714844 206.027344 L 175.714844 191.207031 L 188.808594 191.207031 C 189.320312 191.207031 189.820312 191.007812 190.183594 190.640625 C 190.542969 190.277344 190.75 189.777344 190.75 189.265625 L 190.75 121.792969 C 190.75 120.722656 189.878906 119.851562 188.808594 119.851562 C 187.734375 119.851562 186.863281 120.722656 186.863281 121.792969 " fill-opacity="1" fill-rule="nonzero"/><path fill="#040505" d="M 124.710938 177.433594 L 124.710938 144.136719 L 152.835938 144.136719 C 153.34375 144.136719 153.847656 143.925781 154.207031 143.570312 C 154.570312 143.203125 154.78125 142.707031 154.78125 142.191406 L 154.78125 121.792969 C 154.78125 120.722656 153.910156 119.851562 152.835938 119.851562 C 151.757812 119.851562 150.894531 120.722656 150.894531 121.792969 L 150.894531 140.25 L 122.769531 140.25 C 122.253906 140.25 121.757812 140.460938 121.390625 140.816406 C 121.035156 141.183594 120.824219 141.679688 120.824219 142.191406 L 120.824219 177.433594 C 120.824219 178.515625 121.695312 179.375 122.769531 179.375 C 123.839844 179.375 124.710938 178.515625 124.710938 177.433594 " fill-opacity="1" fill-rule="nonzero"/><path fill="#040505" d="M 199.441406 121.792969 L 199.441406 171.027344 C 199.441406 171.539062 199.644531 172.039062 200.011719 172.402344 C 200.367188 172.761719 200.875 172.972656 201.386719 172.972656 L 229.511719 172.972656 L 229.511719 216.375 C 229.511719 217.445312 230.375 218.316406 231.457031 218.316406 C 232.519531 218.316406 233.398438 217.445312 233.398438 216.375 L 233.398438 171.027344 C 233.398438 170.515625 233.191406 170.015625 232.824219 169.652344 C 232.46875 169.292969 231.960938 169.082031 231.457031 169.082031 L 203.328125 169.082031 L 203.328125 121.792969 C 203.328125 120.722656 202.460938 119.851562 201.386719 119.851562 C 200.3125 119.851562 199.441406 120.722656 199.441406 121.792969 " fill-opacity="1" fill-rule="nonzero"/><path fill="#040505" d="M 254.335938 177.433594 L 254.335938 142.191406 C 254.335938 141.679688 254.125 141.183594 253.769531 140.816406 C 253.402344 140.460938 252.90625 140.25 252.390625 140.25 L 224.273438 140.25 L 224.273438 121.792969 C 224.273438 120.722656 223.402344 119.851562 222.328125 119.851562 C 221.25 119.851562 220.386719 120.722656 220.386719 121.792969 L 220.386719 142.191406 C 220.386719 142.707031 220.589844 143.203125 220.953125 143.570312 C 221.3125 143.925781 221.816406 144.136719 222.328125 144.136719 L 250.449219 144.136719 L 250.449219 177.433594 C 250.449219 178.515625 251.320312 179.375 252.390625 179.375 C 253.464844 179.375 254.335938 178.515625 254.335938 177.433594 " fill-opacity="1" fill-rule="nonzero"/><path fill="#e1b92f" d="M 222.640625 207.566406 C 222.640625 202.699219 226.582031 198.75 231.457031 198.75 C 236.316406 198.75 240.265625 202.699219 240.265625 207.566406 C 240.265625 212.433594 236.316406 216.375 231.457031 216.375 C 226.582031 216.375 222.640625 212.433594 222.640625 207.566406 " fill-opacity="1" fill-rule="nonzero"/><path fill="#040505" d="M 222.640625 207.566406 L 224.585938 207.566406 C 224.585938 205.660156 225.347656 203.957031 226.597656 202.707031 C 227.839844 201.464844 229.550781 200.691406 231.457031 200.691406 C 233.351562 200.691406 235.0625 201.464844 236.308594 202.707031 C 237.550781 203.957031 238.320312 205.660156 238.320312 207.566406 C 238.320312 209.46875 237.550781 211.171875 236.308594 212.425781 C 235.0625 213.667969 233.351562 214.429688 231.457031 214.429688 C 229.550781 214.429688 227.839844 213.667969 226.597656 212.425781 C 225.347656 211.171875 224.585938 209.46875 224.585938 207.566406 L 220.695312 207.566406 C 220.695312 210.527344 221.902344 213.234375 223.84375 215.167969 C 225.789062 217.113281 228.488281 218.324219 231.457031 218.316406 C 234.417969 218.324219 237.117188 217.113281 239.058594 215.167969 C 241.003906 213.234375 242.207031 210.527344 242.207031 207.566406 C 242.207031 201.625 237.394531 196.8125 231.457031 196.804688 C 225.507812 196.8125 220.695312 201.625 220.695312 207.566406 L 222.640625 207.566406 " fill-opacity="1" fill-rule="nonzero"/><path fill="#e1b92f" d="M 164.964844 207.566406 C 164.964844 202.699219 168.90625 198.75 173.773438 198.75 C 178.640625 198.75 182.589844 202.699219 182.589844 207.566406 C 182.589844 212.433594 178.640625 216.375 173.773438 216.375 C 168.90625 216.375 164.964844 212.433594 164.964844 207.566406 " fill-opacity="1" fill-rule="nonzero"/><path fill="#040505" d="M 164.964844 207.566406 L 166.910156 207.566406 C 166.910156 205.660156 167.671875 203.957031 168.921875 202.707031 C 170.164062 201.464844 171.867188 200.691406 173.773438 200.691406 C 175.679688 200.691406 177.378906 201.464844 178.632812 202.707031 C 179.875 203.957031 180.644531 205.660156 180.644531 207.566406 C 180.644531 209.46875 179.875 211.171875 178.632812 212.425781 C 177.378906 213.667969 175.679688 214.429688 173.773438 214.429688 C 171.867188 214.429688 170.164062 213.667969 168.921875 212.425781 C 167.671875 211.171875 166.910156 209.46875 166.910156 207.566406 L 163.023438 207.566406 C 163.023438 210.527344 164.226562 213.234375 166.171875 215.167969 C 168.105469 217.113281 170.8125 218.324219 173.773438 218.316406 C 176.742188 218.324219 179.441406 217.113281 181.375 215.167969 C 183.320312 213.234375 184.53125 210.527344 184.53125 207.566406 C 184.53125 201.625 179.710938 196.8125 173.773438 196.804688 C 167.832031 196.8125 163.023438 201.625 163.023438 207.566406 L 164.964844 207.566406 " fill-opacity="1" fill-rule="nonzero"/><path fill="#e1b92f" d="M 134.894531 214.835938 C 134.894531 209.96875 138.84375 206.027344 143.710938 206.027344 C 148.578125 206.027344 152.519531 209.96875 152.519531 214.835938 C 152.519531 219.699219 148.578125 223.648438 143.710938 223.648438 C 138.84375 223.648438 134.894531 219.699219 134.894531 214.835938 " fill-opacity="1" fill-rule="nonzero"/><g clip-path="url(#id1)"><path fill="#040505" d="M 134.894531 214.835938 L 136.839844 214.835938 C 136.847656 212.9375 137.609375 211.226562 138.851562 209.984375 C 140.105469 208.730469 141.804688 207.96875 143.710938 207.96875 C 145.609375 207.96875 147.316406 208.730469 148.5625 209.984375 C 149.8125 211.226562 150.574219 212.9375 150.574219 214.835938 C 150.574219 216.738281 149.8125 218.441406 148.5625 219.691406 C 147.316406 220.9375 145.609375 221.699219 143.710938 221.707031 C 141.804688 221.699219 140.105469 220.9375 138.851562 219.691406 C 137.609375 218.441406 136.847656 216.738281 136.839844 214.835938 L 132.953125 214.835938 C 132.960938 220.773438 137.773438 225.585938 143.710938 225.59375 C 149.652344 225.585938 154.460938 220.773438 154.460938 214.835938 C 154.460938 208.894531 149.652344 204.082031 143.710938 204.082031 C 137.773438 204.082031 132.960938 208.894531 132.953125 214.835938 L 134.894531 214.835938 " fill-opacity="1" fill-rule="nonzero"/></g><path fill="#e1b92f" d="M 113.953125 173.101562 C 113.953125 168.238281 117.902344 164.296875 122.769531 164.296875 C 127.632812 164.296875 131.574219 168.238281 131.574219 173.101562 C 131.574219 177.96875 127.632812 181.910156 122.769531 181.910156 C 117.902344 181.910156 113.953125 177.96875 113.953125 173.101562 " fill-opacity="1" fill-rule="nonzero"/><path fill="#040505" d="M 113.953125 173.101562 L 115.894531 173.101562 C 115.894531 171.199219 116.664062 169.496094 117.910156 168.246094 C 119.160156 167 120.863281 166.238281 122.769531 166.238281 C 124.671875 166.238281 126.375 167 127.625 168.246094 C 128.871094 169.496094 129.632812 171.199219 129.632812 173.101562 C 129.632812 175 128.871094 176.710938 127.625 177.953125 C 126.375 179.207031 124.671875 179.96875 122.769531 179.96875 C 120.863281 179.96875 119.160156 179.207031 117.910156 177.953125 C 116.664062 176.710938 115.894531 175 115.894531 173.101562 L 112.007812 173.101562 C 112.007812 179.042969 116.828125 183.855469 122.769531 183.855469 C 128.707031 183.855469 133.519531 179.042969 133.519531 173.101562 C 133.519531 167.164062 128.707031 162.351562 122.769531 162.351562 C 116.828125 162.351562 112.015625 167.164062 112.007812 173.101562 L 113.953125 173.101562 " fill-opacity="1" fill-rule="nonzero"/><path fill="#e1b92f" d="M 243.582031 178.0625 C 243.582031 173.195312 247.523438 169.246094 252.390625 169.246094 C 257.257812 169.246094 261.199219 173.195312 261.199219 178.0625 C 261.199219 182.929688 257.257812 186.871094 252.390625 186.871094 C 247.523438 186.871094 243.582031 182.929688 243.582031 178.0625 " fill-opacity="1" fill-rule="nonzero"/><path fill="#040505" d="M 243.582031 178.0625 L 245.527344 178.0625 C 245.527344 176.160156 246.289062 174.457031 247.539062 173.203125 C 248.785156 171.960938 250.488281 171.199219 252.390625 171.191406 C 254.296875 171.199219 256 171.960938 257.25 173.203125 C 258.496094 174.457031 259.257812 176.160156 259.257812 178.0625 C 259.257812 179.96875 258.496094 181.671875 257.25 182.921875 C 256 184.164062 254.296875 184.925781 252.390625 184.925781 C 250.488281 184.925781 248.785156 184.164062 247.539062 182.921875 C 246.289062 181.671875 245.527344 179.96875 245.527344 178.0625 L 241.640625 178.0625 C 241.640625 184.003906 246.453125 188.816406 252.390625 188.816406 C 258.332031 188.816406 263.144531 184.003906 263.144531 178.0625 C 263.144531 172.125 258.332031 167.3125 252.390625 167.304688 C 246.453125 167.3125 241.640625 172.125 241.640625 178.0625 L 243.582031 178.0625 " fill-opacity="1" fill-rule="nonzero"/><path fill="#64cbd6" d="M 134.863281 127.421875 C 114.542969 127.421875 98.011719 110.886719 98.011719 90.574219 C 98.011719 72.132812 111.976562 56.390625 130.089844 54.027344 C 132.082031 35.597656 147.769531 21.386719 166.496094 21.386719 C 176.175781 21.386719 185.503906 25.261719 192.335938 32.070312 C 198.464844 27.832031 205.609375 25.605469 213.117188 25.605469 C 233.304688 25.605469 249.734375 42.03125 249.734375 62.222656 C 249.734375 62.476562 249.734375 62.742188 249.726562 63.007812 C 265.484375 65.417969 277.144531 78.867188 277.144531 95.019531 C 277.144531 112.886719 262.613281 127.421875 244.75 127.421875 L 134.863281 127.421875 " fill-opacity="1" fill-rule="nonzero"/><g clip-path="url(#id2)"><path fill="#040505" d="M 166.496094 19.445312 C 147.285156 19.445312 131.117188 33.644531 128.351562 52.324219 C 119.9375 53.746094 112.21875 57.914062 106.355469 64.257812 C 99.726562 71.441406 96.070312 80.785156 96.070312 90.574219 C 96.070312 111.960938 113.46875 129.367188 134.863281 129.367188 L 244.75 129.367188 C 263.6875 129.367188 279.085938 113.957031 279.085938 95.019531 C 279.085938 86.429688 275.898438 78.210938 270.109375 71.867188 C 265.179688 66.472656 258.734375 62.828125 251.667969 61.382812 C 251.21875 40.507812 234.097656 23.660156 213.117188 23.660156 C 205.738281 23.660156 198.703125 25.699219 192.5625 29.589844 C 185.480469 23.105469 176.160156 19.445312 166.496094 19.445312 M 166.496094 23.332031 C 176.640625 23.332031 185.769531 27.6875 192.113281 34.636719 C 197.941406 30.1875 205.21875 27.546875 213.117188 27.546875 C 232.265625 27.546875 247.789062 43.074219 247.789062 62.222656 C 247.789062 63.0625 247.757812 63.882812 247.703125 64.707031 C 263.136719 66.195312 275.199219 79.199219 275.199219 95.019531 C 275.199219 111.84375 261.566406 125.480469 244.75 125.480469 L 134.863281 125.480469 C 115.585938 125.480469 99.957031 109.851562 99.957031 90.574219 C 99.957031 72.296875 114.007812 57.300781 131.886719 55.792969 C 133.039062 37.671875 148.085938 23.332031 166.496094 23.332031 " fill-opacity="1" fill-rule="nonzero"/></g><path fill="#4a959f" d="M 135.734375 41.992188 C 141.324219 31.273438 152.355469 23.835938 165.167969 23.355469 C 165.191406 23.355469 165.222656 23.351562 165.246094 23.351562 C 165.269531 23.351562 165.300781 23.351562 165.324219 23.351562 C 165.355469 23.351562 165.378906 23.347656 165.402344 23.347656 L 165.476562 23.347656 C 165.476562 23.34375 165.476562 23.34375 165.484375 23.34375 L 165.515625 23.34375 C 165.539062 23.34375 165.570312 23.34375 165.59375 23.339844 L 165.679688 23.339844 C 165.703125 23.339844 165.71875 23.335938 165.75 23.335938 L 165.875 23.335938 C 165.882812 23.335938 165.890625 23.335938 165.90625 23.335938 L 166.109375 23.335938 C 166.117188 23.332031 166.132812 23.332031 166.140625 23.332031 L 166.871094 23.332031 C 166.878906 23.332031 166.886719 23.335938 166.886719 23.335938 L 167.03125 23.335938 C 176.523438 23.480469 185.085938 27.4375 191.265625 33.742188 C 187.261719 34.667969 183.574219 36.425781 180.410156 38.84375 C 175.1875 33.121094 167.671875 29.53125 159.3125 29.53125 C 149.519531 29.53125 140.875 34.472656 135.734375 41.992188 " fill-opacity="1" fill-rule="nonzero"/><path fill="#030404" d="M 165.476562 23.347656 C 165.476562 23.34375 165.476562 23.34375 165.484375 23.34375 C 165.476562 23.34375 165.476562 23.34375 165.476562 23.347656 M 165.671875 23.339844 L 165.679688 23.339844 L 165.671875 23.339844 M 165.75 23.335938 L 165.757812 23.335938 L 165.75 23.335938 M 165.828125 23.335938 L 165.835938 23.335938 L 165.828125 23.335938 M 165.867188 23.335938 L 165.875 23.335938 L 165.867188 23.335938 M 165.90625 23.335938 L 165.914062 23.335938 L 165.90625 23.335938 M 165.945312 23.335938 L 165.953125 23.335938 L 165.945312 23.335938 M 167.011719 23.335938 L 167.003906 23.335938 L 167.011719 23.335938 M 166.988281 23.335938 L 166.972656 23.335938 L 166.988281 23.335938 M 166.023438 23.335938 L 166.03125 23.335938 L 166.023438 23.335938 M 166.957031 23.335938 L 166.949219 23.335938 L 166.957031 23.335938 M 166.925781 23.335938 L 166.917969 23.335938 L 166.925781 23.335938 M 166.0625 23.335938 L 166.070312 23.335938 L 166.0625 23.335938 M 166.902344 23.335938 L 166.886719 23.335938 L 166.902344 23.335938 M 166.101562 23.335938 L 166.109375 23.335938 L 166.101562 23.335938 M 166.871094 23.332031 L 166.863281 23.332031 L 166.871094 23.332031 M 166.839844 23.332031 L 166.832031 23.332031 L 166.839844 23.332031 M 166.816406 23.332031 L 166.800781 23.332031 L 166.816406 23.332031 M 166.179688 23.332031 L 166.1875 23.332031 L 166.179688 23.332031 M 166.785156 23.332031 L 166.769531 23.332031 L 166.785156 23.332031 M 166.21875 23.332031 L 166.222656 23.332031 L 166.21875 23.332031 M 166.753906 23.332031 L 166.738281 23.332031 L 166.753906 23.332031 M 166.253906 23.332031 L 166.261719 23.332031 L 166.253906 23.332031 M 166.722656 23.332031 L 166.714844 23.332031 L 166.722656 23.332031 M 166.699219 23.332031 L 166.683594 23.332031 L 166.699219 23.332031 M 166.292969 23.332031 L 166.300781 23.332031 L 166.292969 23.332031 M 166.667969 23.332031 L 166.652344 23.332031 L 166.667969 23.332031 M 166.332031 23.332031 L 166.339844 23.332031 L 166.332031 23.332031 M 166.636719 23.332031 L 166.621094 23.332031 L 166.636719 23.332031 M 166.371094 23.332031 L 166.378906 23.332031 L 166.371094 23.332031 M 166.605469 23.332031 L 166.597656 23.332031 L 166.605469 23.332031 M 166.582031 23.332031 L 166.566406 23.332031 L 166.582031 23.332031 M 166.550781 23.332031 L 166.535156 23.332031 L 166.550781 23.332031 M 166.449219 23.332031 L 166.457031 23.332031 L 166.449219 23.332031 M 166.527344 23.332031 L 166.496094 23.332031 L 166.527344 23.332031 " fill-opacity="1" fill-rule="nonzero"/><path fill="#4a959f" d="M 244.75 125.480469 L 134.863281 125.480469 C 115.585938 125.480469 99.957031 109.851562 99.957031 90.574219 L 99.957031 90.261719 C 99.957031 90.261719 99.960938 90.261719 99.960938 90.253906 L 99.960938 89.859375 C 99.960938 89.859375 99.960938 89.851562 99.964844 89.84375 L 99.964844 89.710938 L 99.96875 89.703125 L 99.96875 89.59375 C 99.972656 89.59375 99.972656 89.585938 99.972656 89.578125 L 99.972656 89.492188 C 99.972656 89.484375 99.972656 89.484375 99.972656 89.476562 L 99.972656 89.390625 C 99.976562 89.375 99.976562 89.359375 99.976562 89.34375 C 99.984375 89.1875 99.988281 89.035156 99.996094 88.871094 C 100 88.863281 100 88.855469 100 88.847656 L 100 88.824219 C 100 88.816406 100 88.808594 100 88.800781 L 100 88.746094 L 100.003906 88.746094 L 100.003906 88.722656 C 100.003906 88.699219 100.007812 88.683594 100.007812 88.667969 L 100.007812 88.636719 C 100.007812 88.628906 100.011719 88.621094 100.011719 88.613281 C 100.945312 71.589844 114.101562 57.8125 130.851562 55.894531 C 130.84375 56.015625 130.828125 56.140625 130.820312 56.257812 C 116.089844 57.511719 104.523438 69.855469 104.523438 84.90625 C 104.523438 100.78125 117.386719 113.65625 133.269531 113.65625 L 223.761719 113.65625 C 237.613281 113.65625 248.839844 102.429688 248.839844 88.574219 C 248.839844 75.546875 238.902344 64.832031 226.191406 63.605469 C 226.238281 62.929688 226.261719 62.246094 226.261719 61.558594 C 226.261719 45.785156 213.484375 33.007812 197.710938 33.007812 C 196.488281 33.007812 195.285156 33.082031 194.09375 33.230469 C 199.480469 29.691406 205.910156 27.609375 212.820312 27.550781 L 212.859375 27.550781 C 212.859375 27.550781 212.867188 27.546875 212.875 27.546875 L 213.117188 27.546875 C 232.265625 27.546875 247.789062 43.074219 247.789062 62.222656 C 247.789062 63.0625 247.757812 63.882812 247.703125 64.707031 C 263.136719 66.195312 275.199219 79.199219 275.199219 95.019531 C 275.199219 111.84375 261.566406 125.480469 244.75 125.480469 " fill-opacity="1" fill-rule="nonzero"/><path fill="#030404" d="M 244.75 125.480469 L 134.863281 125.480469 C 115.585938 125.480469 99.957031 109.851562 99.957031 90.574219 C 99.957031 109.851562 115.585938 125.480469 134.863281 125.480469 L 244.75 125.480469 C 261.566406 125.480469 275.199219 111.84375 275.199219 95.019531 C 275.199219 111.84375 261.566406 125.480469 244.75 125.480469 M 99.957031 90.574219 L 99.957031 90.542969 L 99.957031 90.574219 M 99.957031 90.535156 L 99.957031 90.519531 L 99.957031 90.535156 M 99.957031 90.503906 L 99.957031 90.496094 L 99.957031 90.503906 M 99.957031 90.472656 L 99.957031 90.464844 L 99.957031 90.472656 M 99.957031 90.449219 L 99.957031 90.441406 L 99.957031 90.449219 M 99.957031 90.425781 L 99.957031 90.410156 L 99.957031 90.425781 M 99.957031 90.402344 L 99.957031 90.386719 L 99.957031 90.402344 M 99.957031 90.371094 L 99.957031 90.355469 L 99.957031 90.371094 M 99.957031 90.347656 L 99.957031 90.332031 L 99.957031 90.347656 M 99.957031 90.316406 L 99.957031 90.308594 L 99.957031 90.316406 M 99.957031 90.292969 L 99.957031 90.277344 L 99.957031 90.292969 M 99.957031 90.261719 C 99.957031 90.261719 99.960938 90.261719 99.960938 90.253906 C 99.960938 90.261719 99.957031 90.261719 99.957031 90.261719 M 99.960938 90.238281 L 99.960938 90.230469 L 99.960938 90.238281 M 99.960938 90.214844 L 99.960938 90.199219 L 99.960938 90.214844 M 99.960938 90.183594 L 99.960938 90.175781 L 99.960938 90.183594 M 99.960938 90.160156 L 99.960938 90.144531 L 99.960938 90.160156 M 99.960938 90.136719 L 99.960938 90.121094 L 99.960938 90.136719 M 99.960938 90.105469 L 99.960938 90.089844 L 99.960938 90.105469 M 99.960938 90.082031 L 99.960938 90.066406 L 99.960938 90.082031 M 99.960938 90.050781 L 99.960938 90.042969 L 99.960938 90.050781 M 99.960938 90.027344 L 99.960938 90.011719 L 99.960938 90.027344 M 99.964844 90.003906 L 99.964844 89.988281 L 99.964844 90.003906 M 99.964844 89.976562 L 99.964844 89.96875 L 99.964844 89.976562 M 99.964844 89.953125 L 99.964844 89.9375 L 99.964844 89.953125 M 99.964844 89.929688 L 99.964844 89.914062 L 99.964844 89.929688 M 99.964844 89.898438 L 99.964844 89.890625 L 99.964844 89.898438 M 99.964844 89.875 L 99.964844 89.859375 L 99.964844 89.875 M 99.96875 89.84375 L 99.96875 89.828125 L 99.96875 89.84375 M 99.96875 89.820312 L 99.96875 89.804688 L 99.96875 89.820312 M 99.96875 89.789062 L 99.96875 89.78125 L 99.96875 89.789062 M 99.96875 89.765625 L 99.96875 89.757812 L 99.96875 89.765625 M 99.96875 89.734375 L 99.96875 89.726562 L 99.96875 89.734375 M 99.96875 89.710938 L 99.96875 89.703125 L 99.96875 89.710938 M 99.96875 89.6875 L 99.96875 89.679688 L 99.96875 89.6875 M 99.96875 89.65625 L 99.96875 89.648438 L 99.96875 89.65625 M 99.96875 89.632812 L 99.96875 89.625 L 99.96875 89.632812 M 99.96875 89.609375 L 99.96875 89.59375 L 99.96875 89.609375 M 99.972656 89.578125 L 99.972656 89.570312 L 99.972656 89.578125 M 99.972656 89.554688 L 99.972656 89.546875 L 99.972656 89.554688 M 99.972656 89.523438 L 99.972656 89.515625 L 99.972656 89.523438 M 99.972656 89.5 L 99.972656 89.492188 L 99.972656 89.5 M 99.976562 89.476562 L 99.976562 89.46875 L 99.976562 89.476562 M 99.976562 89.445312 L 99.976562 89.4375 L 99.976562 89.445312 M 99.976562 89.398438 L 99.976562 89.390625 L 99.976562 89.398438 M 100.003906 88.777344 L 100.003906 88.769531 L 100.003906 88.777344 M 100.003906 88.746094 L 100.007812 88.746094 L 100.003906 88.746094 M 100.011719 88.644531 L 100.011719 88.636719 L 100.011719 88.644531 M 247.703125 64.707031 C 247.757812 63.886719 247.789062 63.0625 247.789062 62.222656 C 247.789062 63.0625 247.757812 63.886719 247.703125 64.707031 M 212.820312 27.550781 L 212.828125 27.550781 L 212.820312 27.550781 M 212.859375 27.550781 C 212.859375 27.550781 212.867188 27.546875 212.875 27.546875 C 212.867188 27.546875 212.859375 27.550781 212.859375 27.550781 M 212.898438 27.546875 L 212.921875 27.546875 L 212.898438 27.546875 M 212.945312 27.546875 L 212.960938 27.546875 L 212.945312 27.546875 M 212.984375 27.546875 L 213.007812 27.546875 L 212.984375 27.546875 M 213.03125 27.546875 L 213.054688 27.546875 L 213.03125 27.546875 M 213.070312 27.546875 L 213.117188 27.546875 L 213.070312 27.546875 " fill-opacity="1" fill-rule="nonzero"/><path fill="#ffffff" d="M 133.652344 59.695312 C 118.476562 59.695312 106.179688 71.992188 106.179688 87.175781 C 106.179688 88.25 107.050781 89.121094 108.121094 89.121094 C 109.195312 89.121094 110.066406 88.25 110.066406 87.175781 C 110.066406 80.652344 112.699219 74.769531 116.976562 70.492188 C 121.253906 66.21875 127.136719 63.582031 133.652344 63.582031 C 134.730469 63.582031 135.59375 62.710938 135.59375 61.636719 C 135.59375 60.566406 134.730469 59.695312 133.652344 59.695312 " fill-opacity="1" fill-rule="nonzero"/><path fill="#ffffff" d="M 167.328125 35.355469 C 165.027344 34.761719 162.71875 34.476562 160.449219 34.476562 C 154.324219 34.476562 148.476562 36.535156 143.757812 40.144531 C 139.039062 43.742188 135.449219 48.910156 133.855469 55.101562 C 133.582031 56.140625 134.210938 57.207031 135.253906 57.472656 C 136.285156 57.734375 137.34375 57.113281 137.617188 56.070312 C 138.992188 50.746094 142.0625 46.332031 146.121094 43.230469 C 150.171875 40.136719 155.199219 38.363281 160.449219 38.363281 C 162.390625 38.363281 164.375 38.601562 166.355469 39.117188 C 167.398438 39.386719 168.457031 38.757812 168.71875 37.726562 C 168.992188 36.683594 168.363281 35.621094 167.328125 35.355469 " fill-opacity="1" fill-rule="nonzero"/><path fill="#040505" d="M 172.871094 77.863281 C 172.871094 90.519531 183.132812 100.773438 195.789062 100.78125 C 196.863281 100.78125 197.734375 99.910156 197.734375 98.835938 C 197.734375 97.757812 196.863281 96.894531 195.789062 96.894531 C 190.527344 96.886719 185.785156 94.761719 182.332031 91.3125 C 178.878906 87.867188 176.757812 83.125 176.757812 77.863281 C 176.757812 76.789062 175.886719 75.917969 174.816406 75.917969 C 173.742188 75.917969 172.871094 76.789062 172.871094 77.863281 " fill-opacity="1" fill-rule="nonzero"/><path fill="#040505" d="M 180.398438 89.96875 C 175.484375 87.558594 170.257812 86.398438 165.121094 86.398438 C 158.722656 86.40625 152.449219 88.179688 147.023438 91.492188 C 141.597656 94.800781 137.003906 99.644531 133.992188 105.773438 C 133.519531 106.734375 133.914062 107.902344 134.878906 108.375 C 135.84375 108.851562 137.003906 108.453125 137.476562 107.488281 C 140.160156 102.039062 144.222656 97.75 149.042969 94.808594 C 153.863281 91.871094 159.4375 90.285156 165.121094 90.285156 C 169.675781 90.292969 174.300781 91.304688 178.679688 93.457031 C 179.640625 93.929688 180.808594 93.535156 181.28125 92.570312 C 181.757812 91.605469 181.359375 90.449219 180.398438 89.96875 " fill-opacity="1" fill-rule="nonzero"/><path fill="#040505" d="M 217.835938 44.628906 C 211.074219 37.871094 202.203125 34.476562 193.347656 34.476562 C 184.46875 34.476562 175.578125 37.855469 168.8125 44.628906 C 168.050781 45.390625 168.050781 46.617188 168.8125 47.378906 C 169.566406 48.140625 170.804688 48.140625 171.558594 47.378906 C 177.574219 41.363281 185.449219 38.371094 193.347656 38.363281 C 201.214844 38.371094 209.074219 41.371094 215.085938 47.378906 C 215.839844 48.140625 217.074219 48.140625 217.835938 47.378906 C 218.589844 46.617188 218.589844 45.390625 217.835938 44.628906 " fill-opacity="1" fill-rule="nonzero"/><path fill="#040505" d="M 273.195312 107.148438 C 273.195312 95.402344 263.679688 85.886719 251.933594 85.886719 C 240.1875 85.886719 230.671875 95.402344 230.671875 107.148438 C 230.671875 108.21875 231.542969 109.089844 232.613281 109.089844 C 233.6875 109.089844 234.558594 108.21875 234.558594 107.148438 C 234.558594 102.34375 236.5 98.011719 239.648438 94.863281 C 242.796875 91.714844 247.128906 89.773438 251.933594 89.773438 C 256.738281 89.773438 261.066406 91.714844 264.214844 94.863281 C 267.363281 98.011719 269.308594 102.34375 269.308594 107.148438 C 269.308594 108.21875 270.179688 109.089844 271.25 109.089844 C 272.324219 109.089844 273.195312 108.21875 273.195312 107.148438 " fill-opacity="1" fill-rule="nonzero"/><g fill="#ffffff" fill-opacity="1"><g transform="translate(32.050784, 297.480844)"><g><path d="M 33.53125 0.75 C 28.320312 0.75 23.488281 -0.597656 19.03125 -3.296875 C 14.570312 -6.003906 11.023438 -9.648438 8.390625 -14.234375 C 5.765625 -18.816406 4.453125 -23.757812 4.453125 -29.0625 C 4.453125 -34.363281 5.753906 -39.296875 8.359375 -43.859375 C 10.960938 -48.421875 14.484375 -52.050781 18.921875 -54.75 C 23.359375 -57.457031 28.226562 -58.8125 33.53125 -58.8125 C 40.46875 -58.8125 46.585938 -56.601562 51.890625 -52.1875 C 52.335938 -51.84375 52.5625 -51.347656 52.5625 -50.703125 C 52.5625 -50.109375 52.363281 -49.570312 51.96875 -49.09375 C 51.570312 -48.625 51.023438 -48.390625 50.328125 -48.390625 C 49.785156 -48.390625 49.164062 -48.691406 48.46875 -49.296875 C 44.707031 -52.660156 39.726562 -54.34375 33.53125 -54.34375 C 29.164062 -54.34375 25.085938 -53.175781 21.296875 -50.84375 C 17.503906 -48.519531 14.492188 -45.410156 12.265625 -41.515625 C 10.035156 -37.628906 8.921875 -33.476562 8.921875 -29.0625 C 8.921875 -24.507812 10.019531 -20.285156 12.21875 -16.390625 C 14.425781 -12.503906 17.425781 -9.421875 21.21875 -7.140625 C 25.007812 -4.859375 29.113281 -3.71875 33.53125 -3.71875 C 39.375 -3.71875 44.503906 -5.523438 48.921875 -9.140625 C 49.265625 -9.390625 49.632812 -9.515625 50.03125 -9.515625 C 50.625 -9.515625 51.15625 -9.289062 51.625 -8.84375 C 52.101562 -8.394531 52.34375 -7.851562 52.34375 -7.21875 C 52.34375 -6.570312 52.164062 -6.050781 51.8125 -5.65625 C 47.550781 -1.382812 41.457031 0.75 33.53125 0.75 Z M 33.53125 0.75 "/></g></g></g><g fill="#ffffff" fill-opacity="1"><g transform="translate(89.072387, 297.480844)"><g><path d="M 9.671875 0 C 9.023438 0 8.488281 -0.207031 8.0625 -0.625 C 7.644531 -1.050781 7.4375 -1.585938 7.4375 -2.234375 L 7.4375 -55.828125 C 7.4375 -56.472656 7.644531 -57.003906 8.0625 -57.421875 C 8.488281 -57.847656 9.023438 -58.0625 9.671875 -58.0625 L 45.421875 -58.0625 C 46.015625 -58.0625 46.535156 -57.847656 46.984375 -57.421875 C 47.429688 -57.003906 47.65625 -56.472656 47.65625 -55.828125 C 47.65625 -55.234375 47.429688 -54.710938 46.984375 -54.265625 C 46.535156 -53.828125 46.015625 -53.609375 45.421875 -53.609375 L 11.890625 -53.609375 L 11.890625 -31.296875 L 36.5 -31.296875 C 37.144531 -31.296875 37.675781 -31.082031 38.09375 -30.65625 C 38.519531 -30.238281 38.734375 -29.707031 38.734375 -29.0625 C 38.734375 -28.425781 38.519531 -27.882812 38.09375 -27.4375 C 37.675781 -26.988281 37.144531 -26.765625 36.5 -26.765625 L 11.890625 -26.765625 L 11.890625 -4.453125 L 45.421875 -4.453125 C 46.015625 -4.453125 46.535156 -4.226562 46.984375 -3.78125 C 47.429688 -3.34375 47.65625 -2.828125 47.65625 -2.234375 C 47.65625 -1.585938 47.429688 -1.050781 46.984375 -0.625 C 46.535156 -0.207031 46.015625 0 45.421875 0 Z M 9.671875 0 "/></g></g></g><g fill="#ffffff" fill-opacity="1"><g transform="translate(140.072155, 297.480844)"><g><path d="M 9.671875 0 C 9.066406 0 8.539062 -0.207031 8.09375 -0.625 C 7.65625 -1.050781 7.4375 -1.585938 7.4375 -2.234375 L 7.4375 -55.828125 C 7.4375 -56.472656 7.65625 -57.003906 8.09375 -57.421875 C 8.539062 -57.847656 9.066406 -58.0625 9.671875 -58.0625 C 10.304688 -58.0625 10.832031 -57.847656 11.25 -57.421875 C 11.675781 -57.003906 11.890625 -56.472656 11.890625 -55.828125 L 11.890625 -4.015625 L 42.453125 -4.015625 C 43.097656 -4.015625 43.628906 -3.828125 44.046875 -3.453125 C 44.472656 -3.085938 44.6875 -2.601562 44.6875 -2 C 44.6875 -1.40625 44.472656 -0.921875 44.046875 -0.546875 C 43.628906 -0.179688 43.097656 0 42.453125 0 Z M 9.671875 0 "/></g></g></g><g fill="#ffffff" fill-opacity="1"><g transform="translate(186.611301, 297.480844)"><g><path d="M 45.203125 -58.0625 C 45.796875 -58.0625 46.273438 -57.875 46.640625 -57.5 C 47.015625 -57.132812 47.203125 -56.65625 47.203125 -56.0625 C 47.203125 -55.457031 47.015625 -54.96875 46.640625 -54.59375 C 46.273438 -54.226562 45.796875 -54.046875 45.203125 -54.046875 L 26.390625 -54.046875 L 26.390625 -2.234375 C 26.390625 -1.585938 26.175781 -1.050781 25.75 -0.625 C 25.332031 -0.207031 24.800781 0 24.15625 0 C 23.507812 0 22.976562 -0.207031 22.5625 -0.625 C 22.144531 -1.050781 21.9375 -1.585938 21.9375 -2.234375 L 21.9375 -54.046875 L 3.125 -54.046875 C 2.53125 -54.046875 2.046875 -54.226562 1.671875 -54.59375 C 1.296875 -54.96875 1.109375 -55.457031 1.109375 -56.0625 C 1.109375 -56.65625 1.296875 -57.132812 1.671875 -57.5 C 2.046875 -57.875 2.53125 -58.0625 3.125 -58.0625 Z M 45.203125 -58.0625 "/></g></g></g><g fill="#ffffff" fill-opacity="1"><g transform="translate(234.934697, 297.480844)"><g><path d="M 9.671875 0 C 9.023438 0 8.488281 -0.207031 8.0625 -0.625 C 7.644531 -1.050781 7.4375 -1.585938 7.4375 -2.234375 L 7.4375 -55.828125 C 7.4375 -56.472656 7.644531 -57.003906 8.0625 -57.421875 C 8.488281 -57.847656 9.023438 -58.0625 9.671875 -58.0625 L 45.421875 -58.0625 C 46.015625 -58.0625 46.535156 -57.847656 46.984375 -57.421875 C 47.429688 -57.003906 47.65625 -56.472656 47.65625 -55.828125 C 47.65625 -55.234375 47.429688 -54.710938 46.984375 -54.265625 C 46.535156 -53.828125 46.015625 -53.609375 45.421875 -53.609375 L 11.890625 -53.609375 L 11.890625 -31.296875 L 36.5 -31.296875 C 37.144531 -31.296875 37.675781 -31.082031 38.09375 -30.65625 C 38.519531 -30.238281 38.734375 -29.707031 38.734375 -29.0625 C 38.734375 -28.425781 38.519531 -27.882812 38.09375 -27.4375 C 37.675781 -26.988281 37.144531 -26.765625 36.5 -26.765625 L 11.890625 -26.765625 L 11.890625 -4.453125 L 45.421875 -4.453125 C 46.015625 -4.453125 46.535156 -4.226562 46.984375 -3.78125 C 47.429688 -3.34375 47.65625 -2.828125 47.65625 -2.234375 C 47.65625 -1.585938 47.429688 -1.050781 46.984375 -0.625 C 46.535156 -0.207031 46.015625 0 45.421875 0 Z M 9.671875 0 "/></g></g></g><g fill="#ffffff" fill-opacity="1"><g transform="translate(285.934465, 297.480844)"><g><path d="M 33.53125 0.75 C 28.320312 0.75 23.488281 -0.597656 19.03125 -3.296875 C 14.570312 -6.003906 11.023438 -9.648438 8.390625 -14.234375 C 5.765625 -18.816406 4.453125 -23.757812 4.453125 -29.0625 C 4.453125 -34.363281 5.753906 -39.296875 8.359375 -43.859375 C 10.960938 -48.421875 14.484375 -52.050781 18.921875 -54.75 C 23.359375 -57.457031 28.226562 -58.8125 33.53125 -58.8125 C 40.46875 -58.8125 46.585938 -56.601562 51.890625 -52.1875 C 52.335938 -51.84375 52.5625 -51.347656 52.5625 -50.703125 C 52.5625 -50.109375 52.363281 -49.570312 51.96875 -49.09375 C 51.570312 -48.625 51.023438 -48.390625 50.328125 -48.390625 C 49.785156 -48.390625 49.164062 -48.691406 48.46875 -49.296875 C 44.707031 -52.660156 39.726562 -54.34375 33.53125 -54.34375 C 29.164062 -54.34375 25.085938 -53.175781 21.296875 -50.84375 C 17.503906 -48.519531 14.492188 -45.410156 12.265625 -41.515625 C 10.035156 -37.628906 8.921875 -33.476562 8.921875 -29.0625 C 8.921875 -24.507812 10.019531 -20.285156 12.21875 -16.390625 C 14.425781 -12.503906 17.425781 -9.421875 21.21875 -7.140625 C 25.007812 -4.859375 29.113281 -3.71875 33.53125 -3.71875 C 39.375 -3.71875 44.503906 -5.523438 48.921875 -9.140625 C 49.265625 -9.390625 49.632812 -9.515625 50.03125 -9.515625 C 50.625 -9.515625 51.15625 -9.289062 51.625 -8.84375 C 52.101562 -8.394531 52.34375 -7.851562 52.34375 -7.21875 C 52.34375 -6.570312 52.164062 -6.050781 51.8125 -5.65625 C 47.550781 -1.382812 41.457031 0.75 33.53125 0.75 Z M 33.53125 0.75 "/></g></g></g><g fill="#ffffff" fill-opacity="1"><g transform="translate(70.268101, 322.671101)"><g><path d="M 9.234375 -2.921875 C 9.234375 -1.921875 8.863281 -1.160156 8.125 -0.640625 C 7.394531 -0.117188 6.316406 0.140625 4.890625 0.140625 C 3.597656 0.140625 2.582031 -0.0859375 1.84375 -0.546875 C 1.101562 -1.003906 0.628906 -1.703125 0.421875 -2.640625 L 2.46875 -2.96875 C 2.601562 -2.4375 2.875 -2.046875 3.28125 -1.796875 C 3.6875 -1.554688 4.242188 -1.4375 4.953125 -1.4375 C 6.429688 -1.4375 7.171875 -1.890625 7.171875 -2.796875 C 7.171875 -3.078125 7.082031 -3.3125 6.90625 -3.5 C 6.738281 -3.6875 6.5 -3.84375 6.1875 -3.96875 C 5.882812 -4.09375 5.296875 -4.242188 4.421875 -4.421875 C 3.660156 -4.597656 3.128906 -4.738281 2.828125 -4.84375 C 2.535156 -4.957031 2.269531 -5.085938 2.03125 -5.234375 C 1.800781 -5.378906 1.597656 -5.550781 1.421875 -5.75 C 1.253906 -5.957031 1.125 -6.203125 1.03125 -6.484375 C 0.9375 -6.765625 0.890625 -7.082031 0.890625 -7.4375 C 0.890625 -8.351562 1.234375 -9.050781 1.921875 -9.53125 C 2.609375 -10.019531 3.609375 -10.265625 4.921875 -10.265625 C 6.179688 -10.265625 7.125 -10.066406 7.75 -9.671875 C 8.375 -9.285156 8.78125 -8.640625 8.96875 -7.734375 L 6.90625 -7.453125 C 6.800781 -7.890625 6.585938 -8.21875 6.265625 -8.4375 C 5.941406 -8.65625 5.476562 -8.765625 4.875 -8.765625 C 3.59375 -8.765625 2.953125 -8.363281 2.953125 -7.5625 C 2.953125 -7.300781 3.019531 -7.082031 3.15625 -6.90625 C 3.289062 -6.738281 3.492188 -6.597656 3.765625 -6.484375 C 4.035156 -6.367188 4.582031 -6.222656 5.40625 -6.046875 C 6.375 -5.835938 7.066406 -5.644531 7.484375 -5.46875 C 7.898438 -5.300781 8.226562 -5.097656 8.46875 -4.859375 C 8.71875 -4.628906 8.90625 -4.351562 9.03125 -4.03125 C 9.164062 -3.707031 9.234375 -3.335938 9.234375 -2.921875 Z M 9.234375 -2.921875 "/></g></g></g><g fill="#ffffff" fill-opacity="1"><g transform="translate(81.004441, 322.671101)"><g><path d="M 10.8125 -5.109375 C 10.8125 -4.054688 10.601562 -3.128906 10.1875 -2.328125 C 9.769531 -1.523438 9.175781 -0.910156 8.40625 -0.484375 C 7.632812 -0.0664062 6.726562 0.140625 5.6875 0.140625 C 4.101562 0.140625 2.859375 -0.320312 1.953125 -1.25 C 1.054688 -2.1875 0.609375 -3.472656 0.609375 -5.109375 C 0.609375 -6.722656 1.054688 -7.984375 1.953125 -8.890625 C 2.847656 -9.804688 4.097656 -10.265625 5.703125 -10.265625 C 7.304688 -10.265625 8.554688 -9.804688 9.453125 -8.890625 C 10.359375 -7.972656 10.8125 -6.710938 10.8125 -5.109375 Z M 8.65625 -5.109375 C 8.65625 -6.191406 8.394531 -7.039062 7.875 -7.65625 C 7.363281 -8.28125 6.640625 -8.59375 5.703125 -8.59375 C 4.753906 -8.59375 4.019531 -8.285156 3.5 -7.671875 C 2.988281 -7.054688 2.734375 -6.203125 2.734375 -5.109375 C 2.734375 -3.992188 3 -3.113281 3.53125 -2.46875 C 4.0625 -1.832031 4.78125 -1.515625 5.6875 -1.515625 C 6.632812 -1.515625 7.363281 -1.828125 7.875 -2.453125 C 8.394531 -3.078125 8.65625 -3.960938 8.65625 -5.109375 Z M 8.65625 -5.109375 "/></g></g></g><g fill="#ffffff" fill-opacity="1"><g transform="translate(93.370911, 322.671101)"><g><path d="M 0.984375 0 L 0.984375 -10.109375 L 3.09375 -10.109375 L 3.09375 -1.640625 L 8.53125 -1.640625 L 8.53125 0 Z M 0.984375 0 "/></g></g></g><g fill="#ffffff" fill-opacity="1"><g transform="translate(103.281423, 322.671101)"><g><path d="M 5.1875 0.140625 C 3.789062 0.140625 2.722656 -0.195312 1.984375 -0.875 C 1.253906 -1.550781 0.890625 -2.523438 0.890625 -3.796875 L 0.890625 -10.109375 L 3 -10.109375 L 3 -3.953125 C 3 -3.148438 3.1875 -2.539062 3.5625 -2.125 C 3.945312 -1.71875 4.507812 -1.515625 5.25 -1.515625 C 6 -1.515625 6.578125 -1.726562 6.984375 -2.15625 C 7.398438 -2.59375 7.609375 -3.21875 7.609375 -4.03125 L 7.609375 -10.109375 L 9.71875 -10.109375 L 9.71875 -3.890625 C 9.71875 -2.609375 9.320312 -1.613281 8.53125 -0.90625 C 7.738281 -0.207031 6.625 0.140625 5.1875 0.140625 Z M 5.1875 0.140625 "/></g></g></g><g fill="#ffffff" fill-opacity="1"><g transform="translate(114.82924, 322.671101)"><g><path d="M 5.703125 -1.515625 C 6.984375 -1.515625 7.875 -2.160156 8.375 -3.453125 L 10.21875 -2.75 C 9.820312 -1.769531 9.238281 -1.039062 8.46875 -0.5625 C 7.695312 -0.09375 6.773438 0.140625 5.703125 0.140625 C 4.078125 0.140625 2.820312 -0.316406 1.9375 -1.234375 C 1.050781 -2.160156 0.609375 -3.453125 0.609375 -5.109375 C 0.609375 -6.765625 1.035156 -8.035156 1.890625 -8.921875 C 2.742188 -9.816406 3.984375 -10.265625 5.609375 -10.265625 C 6.796875 -10.265625 7.765625 -10.023438 8.515625 -9.546875 C 9.265625 -9.078125 9.789062 -8.378906 10.09375 -7.453125 L 8.21875 -6.9375 C 8.0625 -7.445312 7.75 -7.847656 7.28125 -8.140625 C 6.820312 -8.441406 6.28125 -8.59375 5.65625 -8.59375 C 4.695312 -8.59375 3.96875 -8.296875 3.46875 -7.703125 C 2.976562 -7.109375 2.734375 -6.242188 2.734375 -5.109375 C 2.734375 -3.941406 2.988281 -3.050781 3.5 -2.4375 C 4.007812 -1.820312 4.742188 -1.515625 5.703125 -1.515625 Z M 5.703125 -1.515625 "/></g></g></g><g fill="#ffffff" fill-opacity="1"><g transform="translate(126.37706, 322.671101)"><g><path d="M 0.984375 0 L 0.984375 -10.109375 L 3.09375 -10.109375 L 3.09375 0 Z M 0.984375 0 "/></g></g></g><g fill="#ffffff" fill-opacity="1"><g transform="translate(131.390019, 322.671101)"><g><path d="M 10.8125 -5.109375 C 10.8125 -4.054688 10.601562 -3.128906 10.1875 -2.328125 C 9.769531 -1.523438 9.175781 -0.910156 8.40625 -0.484375 C 7.632812 -0.0664062 6.726562 0.140625 5.6875 0.140625 C 4.101562 0.140625 2.859375 -0.320312 1.953125 -1.25 C 1.054688 -2.1875 0.609375 -3.472656 0.609375 -5.109375 C 0.609375 -6.722656 1.054688 -7.984375 1.953125 -8.890625 C 2.847656 -9.804688 4.097656 -10.265625 5.703125 -10.265625 C 7.304688 -10.265625 8.554688 -9.804688 9.453125 -8.890625 C 10.359375 -7.972656 10.8125 -6.710938 10.8125 -5.109375 Z M 8.65625 -5.109375 C 8.65625 -6.191406 8.394531 -7.039062 7.875 -7.65625 C 7.363281 -8.28125 6.640625 -8.59375 5.703125 -8.59375 C 4.753906 -8.59375 4.019531 -8.285156 3.5 -7.671875 C 2.988281 -7.054688 2.734375 -6.203125 2.734375 -5.109375 C 2.734375 -3.992188 3 -3.113281 3.53125 -2.46875 C 4.0625 -1.832031 4.78125 -1.515625 5.6875 -1.515625 C 6.632812 -1.515625 7.363281 -1.828125 7.875 -2.453125 C 8.394531 -3.078125 8.65625 -3.960938 8.65625 -5.109375 Z M 8.65625 -5.109375 "/></g></g></g><g fill="#ffffff" fill-opacity="1"><g transform="translate(143.756492, 322.671101)"><g><path d="M 7.140625 0 L 2.734375 -7.796875 C 2.816406 -7.035156 2.859375 -6.425781 2.859375 -5.96875 L 2.859375 0 L 0.984375 0 L 0.984375 -10.109375 L 3.40625 -10.109375 L 7.875 -2.265625 C 7.789062 -2.984375 7.75 -3.640625 7.75 -4.234375 L 7.75 -10.109375 L 9.625 -10.109375 L 9.625 0 Z M 7.140625 0 "/></g></g></g><g fill="#ffffff" fill-opacity="1"><g transform="translate(155.304312, 322.671101)"><g><path d="M 0.984375 0 L 0.984375 -10.109375 L 8.9375 -10.109375 L 8.9375 -8.484375 L 3.09375 -8.484375 L 3.09375 -5.9375 L 8.5 -5.9375 L 8.5 -4.296875 L 3.09375 -4.296875 L 3.09375 -1.640625 L 9.234375 -1.640625 L 9.234375 0 Z M 0.984375 0 "/></g></g></g><g fill="#ffffff" fill-opacity="1"><g transform="translate(166.040655, 322.671101)"><g><path d="M 9.234375 -2.921875 C 9.234375 -1.921875 8.863281 -1.160156 8.125 -0.640625 C 7.394531 -0.117188 6.316406 0.140625 4.890625 0.140625 C 3.597656 0.140625 2.582031 -0.0859375 1.84375 -0.546875 C 1.101562 -1.003906 0.628906 -1.703125 0.421875 -2.640625 L 2.46875 -2.96875 C 2.601562 -2.4375 2.875 -2.046875 3.28125 -1.796875 C 3.6875 -1.554688 4.242188 -1.4375 4.953125 -1.4375 C 6.429688 -1.4375 7.171875 -1.890625 7.171875 -2.796875 C 7.171875 -3.078125 7.082031 -3.3125 6.90625 -3.5 C 6.738281 -3.6875 6.5 -3.84375 6.1875 -3.96875 C 5.882812 -4.09375 5.296875 -4.242188 4.421875 -4.421875 C 3.660156 -4.597656 3.128906 -4.738281 2.828125 -4.84375 C 2.535156 -4.957031 2.269531 -5.085938 2.03125 -5.234375 C 1.800781 -5.378906 1.597656 -5.550781 1.421875 -5.75 C 1.253906 -5.957031 1.125 -6.203125 1.03125 -6.484375 C 0.9375 -6.765625 0.890625 -7.082031 0.890625 -7.4375 C 0.890625 -8.351562 1.234375 -9.050781 1.921875 -9.53125 C 2.609375 -10.019531 3.609375 -10.265625 4.921875 -10.265625 C 6.179688 -10.265625 7.125 -10.066406 7.75 -9.671875 C 8.375 -9.285156 8.78125 -8.640625 8.96875 -7.734375 L 6.90625 -7.453125 C 6.800781 -7.890625 6.585938 -8.21875 6.265625 -8.4375 C 5.941406 -8.65625 5.476562 -8.765625 4.875 -8.765625 C 3.59375 -8.765625 2.953125 -8.363281 2.953125 -7.5625 C 2.953125 -7.300781 3.019531 -7.082031 3.15625 -6.90625 C 3.289062 -6.738281 3.492188 -6.597656 3.765625 -6.484375 C 4.035156 -6.367188 4.582031 -6.222656 5.40625 -6.046875 C 6.375 -5.835938 7.066406 -5.644531 7.484375 -5.46875 C 7.898438 -5.300781 8.226562 -5.097656 8.46875 -4.859375 C 8.71875 -4.628906 8.90625 -4.351562 9.03125 -4.03125 C 9.164062 -3.707031 9.234375 -3.335938 9.234375 -2.921875 Z M 9.234375 -2.921875 "/></g></g></g><g fill="#ffffff" fill-opacity="1"><g transform="translate(176.776998, 322.671101)"><g/></g></g><g fill="#ffffff" fill-opacity="1"><g transform="translate(181.789956, 322.671101)"><g><path d="M 0.984375 0 L 0.984375 -10.109375 L 3.09375 -10.109375 L 3.09375 0 Z M 0.984375 0 "/></g></g></g><g fill="#ffffff" fill-opacity="1"><g transform="translate(186.802914, 322.671101)"><g><path d="M 7.140625 0 L 2.734375 -7.796875 C 2.816406 -7.035156 2.859375 -6.425781 2.859375 -5.96875 L 2.859375 0 L 0.984375 0 L 0.984375 -10.109375 L 3.40625 -10.109375 L 7.875 -2.265625 C 7.789062 -2.984375 7.75 -3.640625 7.75 -4.234375 L 7.75 -10.109375 L 9.625 -10.109375 L 9.625 0 Z M 7.140625 0 "/></g></g></g><g fill="#ffffff" fill-opacity="1"><g transform="translate(198.350734, 322.671101)"><g><path d="M 3.09375 -8.484375 L 3.09375 -5.34375 L 8.28125 -5.34375 L 8.28125 -3.71875 L 3.09375 -3.71875 L 3.09375 0 L 0.984375 0 L 0.984375 -10.109375 L 8.4375 -10.109375 L 8.4375 -8.484375 Z M 3.09375 -8.484375 "/></g></g></g><g fill="#ffffff" fill-opacity="1"><g transform="translate(208.261248, 322.671101)"><g><path d="M 10.8125 -5.109375 C 10.8125 -4.054688 10.601562 -3.128906 10.1875 -2.328125 C 9.769531 -1.523438 9.175781 -0.910156 8.40625 -0.484375 C 7.632812 -0.0664062 6.726562 0.140625 5.6875 0.140625 C 4.101562 0.140625 2.859375 -0.320312 1.953125 -1.25 C 1.054688 -2.1875 0.609375 -3.472656 0.609375 -5.109375 C 0.609375 -6.722656 1.054688 -7.984375 1.953125 -8.890625 C 2.847656 -9.804688 4.097656 -10.265625 5.703125 -10.265625 C 7.304688 -10.265625 8.554688 -9.804688 9.453125 -8.890625 C 10.359375 -7.972656 10.8125 -6.710938 10.8125 -5.109375 Z M 8.65625 -5.109375 C 8.65625 -6.191406 8.394531 -7.039062 7.875 -7.65625 C 7.363281 -8.28125 6.640625 -8.59375 5.703125 -8.59375 C 4.753906 -8.59375 4.019531 -8.285156 3.5 -7.671875 C 2.988281 -7.054688 2.734375 -6.203125 2.734375 -5.109375 C 2.734375 -3.992188 3 -3.113281 3.53125 -2.46875 C 4.0625 -1.832031 4.78125 -1.515625 5.6875 -1.515625 C 6.632812 -1.515625 7.363281 -1.828125 7.875 -2.453125 C 8.394531 -3.078125 8.65625 -3.960938 8.65625 -5.109375 Z M 8.65625 -5.109375 "/></g></g></g><g fill="#ffffff" fill-opacity="1"><g transform="translate(220.627722, 322.671101)"><g><path d="M 7.9375 0 L 5.578125 -3.84375 L 3.09375 -3.84375 L 3.09375 0 L 0.984375 0 L 0.984375 -10.109375 L 6.03125 -10.109375 C 7.238281 -10.109375 8.171875 -9.847656 8.828125 -9.328125 C 9.484375 -8.816406 9.8125 -8.070312 9.8125 -7.09375 C 9.8125 -6.382812 9.609375 -5.773438 9.203125 -5.265625 C 8.804688 -4.753906 8.265625 -4.414062 7.578125 -4.25 L 10.3125 0 Z M 7.6875 -7.015625 C 7.6875 -7.984375 7.0625 -8.46875 5.8125 -8.46875 L 3.09375 -8.46875 L 3.09375 -5.484375 L 5.875 -5.484375 C 6.46875 -5.484375 6.914062 -5.613281 7.21875 -5.875 C 7.53125 -6.144531 7.6875 -6.523438 7.6875 -7.015625 Z M 7.6875 -7.015625 "/></g></g></g><g fill="#ffffff" fill-opacity="1"><g transform="translate(232.175542, 322.671101)"><g><path d="M 9.390625 0 L 9.390625 -6.125 C 9.390625 -6.269531 9.390625 -6.410156 9.390625 -6.546875 C 9.390625 -6.679688 9.410156 -7.273438 9.453125 -8.328125 C 9.117188 -7.046875 8.867188 -6.148438 8.703125 -5.640625 L 6.875 0 L 5.375 0 L 3.546875 -5.640625 L 2.78125 -8.328125 C 2.832031 -7.222656 2.859375 -6.488281 2.859375 -6.125 L 2.859375 0 L 0.984375 0 L 0.984375 -10.109375 L 3.8125 -10.109375 L 5.625 -4.453125 L 5.78125 -3.90625 L 6.125 -2.5625 L 6.578125 -4.171875 L 8.4375 -10.109375 L 11.265625 -10.109375 L 11.265625 0 Z M 9.390625 0 "/></g></g></g><g fill="#ffffff" fill-opacity="1"><g transform="translate(245.353481, 322.671101)"><g><path d="M 8.140625 0 L 7.234375 -2.578125 L 3.375 -2.578125 L 2.484375 0 L 0.359375 0 L 4.0625 -10.109375 L 6.546875 -10.109375 L 10.234375 0 Z M 5.3125 -8.5625 L 5.265625 -8.40625 C 5.210938 -8.226562 5.148438 -8.03125 5.078125 -7.8125 C 5.015625 -7.59375 4.609375 -6.378906 3.859375 -4.171875 L 6.765625 -4.171875 L 5.765625 -7.078125 L 5.453125 -8.0625 Z M 3.625 -10.984375 L 3.625 -11.203125 L 5.4375 -13.03125 L 7.28125 -13.03125 L 7.28125 -12.71875 L 4.84375 -10.984375 Z M 3.625 -10.984375 "/></g></g></g><g fill="#ffffff" fill-opacity="1"><g transform="translate(256.901302, 322.671101)"><g><path d="M 5.546875 -8.484375 L 5.546875 0 L 3.4375 0 L 3.4375 -8.484375 L 0.171875 -8.484375 L 0.171875 -10.109375 L 8.828125 -10.109375 L 8.828125 -8.484375 Z M 5.546875 -8.484375 "/></g></g></g><g fill="#ffffff" fill-opacity="1"><g transform="translate(266.811804, 322.671101)"><g><path d="M 0.984375 0 L 0.984375 -10.109375 L 3.09375 -10.109375 L 3.09375 0 Z M 0.984375 0 "/></g></g></g><g fill="#ffffff" fill-opacity="1"><g transform="translate(271.824751, 322.671101)"><g><path d="M 5.703125 -1.515625 C 6.984375 -1.515625 7.875 -2.160156 8.375 -3.453125 L 10.21875 -2.75 C 9.820312 -1.769531 9.238281 -1.039062 8.46875 -0.5625 C 7.695312 -0.09375 6.773438 0.140625 5.703125 0.140625 C 4.078125 0.140625 2.820312 -0.316406 1.9375 -1.234375 C 1.050781 -2.160156 0.609375 -3.453125 0.609375 -5.109375 C 0.609375 -6.765625 1.035156 -8.035156 1.890625 -8.921875 C 2.742188 -9.816406 3.984375 -10.265625 5.609375 -10.265625 C 6.796875 -10.265625 7.765625 -10.023438 8.515625 -9.546875 C 9.265625 -9.078125 9.789062 -8.378906 10.09375 -7.453125 L 8.21875 -6.9375 C 8.0625 -7.445312 7.75 -7.847656 7.28125 -8.140625 C 6.820312 -8.441406 6.28125 -8.59375 5.65625 -8.59375 C 4.695312 -8.59375 3.96875 -8.296875 3.46875 -7.703125 C 2.976562 -7.109375 2.734375 -6.242188 2.734375 -5.109375 C 2.734375 -3.941406 2.988281 -3.050781 3.5 -2.4375 C 4.007812 -1.820312 4.742188 -1.515625 5.703125 -1.515625 Z M 5.703125 -1.515625 "/></g></g></g><g fill="#ffffff" fill-opacity="1"><g transform="translate(283.372571, 322.671101)"><g><path d="M 8.140625 0 L 7.234375 -2.578125 L 3.375 -2.578125 L 2.484375 0 L 0.359375 0 L 4.0625 -10.109375 L 6.546875 -10.109375 L 10.234375 0 Z M 5.3125 -8.5625 L 5.265625 -8.40625 C 5.210938 -8.226562 5.148438 -8.03125 5.078125 -7.8125 C 5.015625 -7.59375 4.609375 -6.378906 3.859375 -4.171875 L 6.765625 -4.171875 L 5.765625 -7.078125 L 5.453125 -8.0625 Z M 5.3125 -8.5625 "/></g></g></g><g fill="#ffffff" fill-opacity="1"><g transform="translate(294.920392, 322.671101)"><g><path d="M 9.234375 -2.921875 C 9.234375 -1.921875 8.863281 -1.160156 8.125 -0.640625 C 7.394531 -0.117188 6.316406 0.140625 4.890625 0.140625 C 3.597656 0.140625 2.582031 -0.0859375 1.84375 -0.546875 C 1.101562 -1.003906 0.628906 -1.703125 0.421875 -2.640625 L 2.46875 -2.96875 C 2.601562 -2.4375 2.875 -2.046875 3.28125 -1.796875 C 3.6875 -1.554688 4.242188 -1.4375 4.953125 -1.4375 C 6.429688 -1.4375 7.171875 -1.890625 7.171875 -2.796875 C 7.171875 -3.078125 7.082031 -3.3125 6.90625 -3.5 C 6.738281 -3.6875 6.5 -3.84375 6.1875 -3.96875 C 5.882812 -4.09375 5.296875 -4.242188 4.421875 -4.421875 C 3.660156 -4.597656 3.128906 -4.738281 2.828125 -4.84375 C 2.535156 -4.957031 2.269531 -5.085938 2.03125 -5.234375 C 1.800781 -5.378906 1.597656 -5.550781 1.421875 -5.75 C 1.253906 -5.957031 1.125 -6.203125 1.03125 -6.484375 C 0.9375 -6.765625 0.890625 -7.082031 0.890625 -7.4375 C 0.890625 -8.351562 1.234375 -9.050781 1.921875 -9.53125 C 2.609375 -10.019531 3.609375 -10.265625 4.921875 -10.265625 C 6.179688 -10.265625 7.125 -10.066406 7.75 -9.671875 C 8.375 -9.285156 8.78125 -8.640625 8.96875 -7.734375 L 6.90625 -7.453125 C 6.800781 -7.890625 6.585938 -8.21875 6.265625 -8.4375 C 5.941406 -8.65625 5.476562 -8.765625 4.875 -8.765625 C 3.59375 -8.765625 2.953125 -8.363281 2.953125 -7.5625 C 2.953125 -7.300781 3.019531 -7.082031 3.15625 -6.90625 C 3.289062 -6.738281 3.492188 -6.597656 3.765625 -6.484375 C 4.035156 -6.367188 4.582031 -6.222656 5.40625 -6.046875 C 6.375 -5.835938 7.066406 -5.644531 7.484375 -5.46875 C 7.898438 -5.300781 8.226562 -5.097656 8.46875 -4.859375 C 8.71875 -4.628906 8.90625 -4.351562 9.03125 -4.03125 C 9.164062 -3.707031 9.234375 -3.335938 9.234375 -2.921875 Z M 9.234375 -2.921875 "/></g></g></g></svg>